<?xml version="1.0" encoding="utf-8"?>
<!-- Generator: Adobe Illustrator 16.0.4, SVG Export Plug-In . SVG Version: 6.00 Build 0)  -->
<!DOCTYPE svg PUBLIC "-//W3C//DTD SVG 1.1//EN" "http://www.w3.org/Graphics/SVG/1.1/DTD/svg11.dtd">
<svg version="1.1" id="Layer_1" xmlns="http://www.w3.org/2000/svg" xmlns:xlink="http://www.w3.org/1999/xlink" x="0px" y="0px"
	 width="419.917px" height="300.917px" viewBox="0 0 419.917 300.917" enable-background="new 0 0 419.917 300.917"
	 xml:space="preserve">
<g id="IPAD" transform="translate(681.000000, 55.000000)" sketch:type="MSLayerGroup">
	<path id="bezel"  fill="#FFFFFF" stroke="#7F89A3" stroke-width="2" d="M-262.083-41.986v274.89
		c0,6.635-5.377,12.014-12.01,12.014H-667.99c-6.633,0-12.01-5.378-12.01-12.014v-274.89C-680-48.622-674.623-54-667.99-54h393.897
		C-267.46-54-262.083-48.622-262.083-41.986z"/>
	<path id="bezel-2"  fill="#FFFFFF" stroke="#7F89A3" stroke-width="2" d="M-262.083-41.986v274.89
		c0,6.635-5.377,12.014-12.01,12.014H-667.99c-6.633,0-12.01-5.378-12.01-12.014v-274.89C-680-48.622-674.623-54-667.99-54h393.897
		C-267.46-54-262.083-48.622-262.083-41.986z"/>
	
		<rect id="screen" x="-648.083" y="-37.541"  fill="#FFFFFF" stroke="#7F89A3" width="353.917" height="265.999">
	</rect>
	<circle id="lock"  fill="none" stroke="#7F89A3" cx="-279.062" cy="95.458" r="8.021">
	</circle>
	<circle id="camera"  fill="none" stroke="#7F89A3" cx="-663.093" cy="95.459" r="2.99">
	</circle>
</g>
</svg>
