<?xml version="1.0" encoding="utf-8"?>
<!-- Generator: Adobe Illustrator 16.0.4, SVG Export Plug-In . SVG Version: 6.00 Build 0)  -->
<!DOCTYPE svg PUBLIC "-//W3C//DTD SVG 1.1//EN" "http://www.w3.org/Graphics/SVG/1.1/DTD/svg11.dtd">
<svg version="1.1" id="Layer_1" xmlns="http://www.w3.org/2000/svg" xmlns:xlink="http://www.w3.org/1999/xlink" x="0px" y="0px"
	 width="335px" height="163px" viewBox="0 0 335 163" enable-background="new 0 0 335 163" xml:space="preserve">
<g>
	<path fill="#FFFFFF" stroke="#808285" d="M308.5,0.5c14.359,0,26,11.641,26,26v110c0,14.359-11.641,26-26,26h-282
		c-14.359,0-26-11.641-26-26v-110c0-14.359,11.641-26,26-26H308.5z"/>
	<rect x="34.558" y="6.797" fill="#FFFFFF" stroke="#7F89A3" width="265.609" height="149.406"/>
	<path fill="#FFFFFF" stroke="#808285" stroke-miterlimit="10" d="M316.5,62.166c4.418,0,8,3.582,8,8v22.667c0,4.418-3.582,8-8,8
		l0,0c-4.418,0-8-3.582-8-8V70.166C308.5,65.748,312.083,62.166,316.5,62.166L316.5,62.166z"/>
	<path fill="#FFFFFF" stroke="#808285" stroke-miterlimit="10" d="M13.042,65.508c1.381,0,2.5,1.119,2.5,2.5v26.984
		c0,1.381-1.119,2.5-2.5,2.5l0,0c-1.381,0-2.5-1.119-2.5-2.5V68.008C10.542,66.627,11.661,65.508,13.042,65.508L13.042,65.508z"/>
	<circle fill="#FFFFFF" stroke="#808285" stroke-miterlimit="10" cx="12.354" cy="112.635" r="2.438"/>
	<circle fill="#FFFFFF" stroke="#808285" stroke-miterlimit="10" cx="12.354" cy="105.01" r="2.438"/>
	<circle fill="#FFFFFF" stroke="#808285" stroke-miterlimit="10" cx="12.229" cy="42.572" r="4.125"/>
</g>
</svg>
