<?xml version="1.0" encoding="utf-8"?>
<!-- Generator: Adobe Illustrator 16.0.4, SVG Export Plug-In . SVG Version: 6.00 Build 0)  -->
<!DOCTYPE svg PUBLIC "-//W3C//DTD SVG 1.1//EN" "http://www.w3.org/Graphics/SVG/1.1/DTD/svg11.dtd">
<svg version="1.1" id="Layer_1" xmlns="http://www.w3.org/2000/svg" xmlns:xlink="http://www.w3.org/1999/xlink" x="0px" y="0px"
	 width="163px" height="335px" viewBox="0 0 163 335" enable-background="new 0 0 163 335" xml:space="preserve">
<g>
	<path fill="#FFFFFF" stroke="#808285" d="M162.5,308.5c0,14.359-11.641,26-26,26h-110c-14.359,0-26-11.641-26-26v-282
		c0-14.359,11.641-26,26-26h110c14.359,0,26,11.641,26,26V308.5z"/>
	<rect x="6.798" y="34.558" fill="#FFFFFF" stroke="#7F89A3" width="149.405" height="265.609"/>
	<path fill="#FFFFFF" stroke="#808285" stroke-miterlimit="10" d="M100.834,316.5c0,4.418-3.582,8-8,8H70.167c-4.418,0-8-3.582-8-8
		l0,0c0-4.418,3.582-8,8-8h22.667C97.252,308.5,100.834,312.082,100.834,316.5L100.834,316.5z"/>
	<path fill="#FFFFFF" stroke="#808285" stroke-miterlimit="10" d="M97.492,13.042c0,1.381-1.119,2.5-2.5,2.5H68.009
		c-1.381,0-2.5-1.119-2.5-2.5l0,0c0-1.381,1.119-2.5,2.5-2.5h26.983C96.373,10.542,97.492,11.661,97.492,13.042L97.492,13.042z"/>
	<circle fill="#FFFFFF" stroke="#808285" stroke-miterlimit="10" cx="50.365" cy="12.354" r="2.438"/>
	<circle fill="#FFFFFF" stroke="#808285" stroke-miterlimit="10" cx="57.99" cy="12.354" r="2.438"/>
	<circle fill="#FFFFFF" stroke="#808285" stroke-miterlimit="10" cx="120.428" cy="12.229" r="4.125"/>
</g>
</svg>
