<?xml version="1.0" encoding="utf-8"?>
<!-- Generator: Adobe Illustrator 16.0.4, SVG Export Plug-In . SVG Version: 6.00 Build 0)  -->
<!DOCTYPE svg PUBLIC "-//W3C//DTD SVG 1.1//EN" "http://www.w3.org/Graphics/SVG/1.1/DTD/svg11.dtd">
<svg version="1.1" id="Layer_1" xmlns="http://www.w3.org/2000/svg" xmlns:xlink="http://www.w3.org/1999/xlink" x="0px" y="0px"
	 width="131.999px" height="273.875px" viewBox="0 0 131.999 273.875" enable-background="new 0 0 131.999 273.875"
	 xml:space="preserve">
<g>
	<path id="bezel_1_"  fill="#FFFFFF" stroke="#7F89A3" stroke-width="2" d="M130.999,256.883
		c0,8.833-7.191,15.992-16.062,15.992H17.062C8.191,272.875,1,265.716,1,256.883V16.992C1,8.159,8.191,1,17.062,1h97.875
		c8.871,0,16.062,7.159,16.062,15.992V256.883L130.999,256.883z"/>
	
		<rect id="screen_1_" x="9.999" y="36.919"  fill="#FFFFFF" stroke="#7F89A3" width="111.93" height="197.084">
	</rect>
	<path id="speaker_1_"  fill="none" stroke="#7F89A3" d="M77.999,26.665c0,0.635-0.439,1.147-0.98,1.147
		H56.917c-0.542,0-0.98-0.513-0.98-1.147v-2.58c0-0.635,0.439-1.147,0.98-1.147h20.102c0.541,0,0.98,0.513,0.98,1.147V26.665
		L77.999,26.665z"/>
	<circle id="camera_2_"  fill="none" stroke="#7F89A3" cx="66.999" cy="12.919" r="3">
	</circle>
	<ellipse id="lock_2_"  fill="none" stroke="#7F89A3" cx="66.039" cy="252.92" rx="10.04" ry="10.001">
	</ellipse>
</g>
</svg>
