<?xml version="1.0" encoding="utf-8"?>
<!-- Generator: Adobe Illustrator 16.0.4, SVG Export Plug-In . SVG Version: 6.00 Build 0)  -->
<!DOCTYPE svg PUBLIC "-//W3C//DTD SVG 1.1//EN" "http://www.w3.org/Graphics/SVG/1.1/DTD/svg11.dtd">
<svg version="1.1" id="Layer_1" xmlns="http://www.w3.org/2000/svg" xmlns:xlink="http://www.w3.org/1999/xlink" x="0px" y="0px"
width="243.875px" height="131.999px" viewBox="0 0 243.875 131.999" enable-background="new 0 0 243.875 131.999"
xml:space="preserve">
<g>
<path id="bezel_2_"  fill="#FFFFFF" stroke="#7F89A3" stroke-width="2" d="M226.883,1
c8.833,0,15.992,7.191,15.992,16.062v97.874c0,8.87-7.159,16.062-15.992,16.062l-209.891,0.001C8.159,130.999,1,123.808,1,114.937
V17.062C1,8.191,8.159,1,16.992,1H226.883L226.883,1z"/>

<rect id="screen_2_" x="36.919" y="10.07"  fill="#FFFFFF" stroke="#7F89A3" width="167.084" height="111.929">
</rect>
<path id="speaker"  fill="none" stroke="#7F89A3" d="M26.665,54c0.635,0,1.147,0.439,1.147,0.98v20.101
c0,0.543-0.513,0.98-1.147,0.98h-2.58c-0.635,0-1.147-0.439-1.147-0.98V54.98c0-0.541,0.513-0.98,1.147-0.98H26.665L26.665,54z"/>
<circle id="camera_1_"  fill="none" stroke="#7F89A3" cx="12.919" cy="65" r="3">
</circle>
<ellipse id="lock_1_"  fill="none" stroke="#7F89A3" cx="222.92" cy="65.959" rx="10.001" ry="10.04">
</ellipse>
</g>
</svg>
