<?xml version="1.0" encoding="utf-8"?>
<!-- Generator: Adobe Illustrator 16.0.4, SVG Export Plug-In . SVG Version: 6.00 Build 0)  -->
<!DOCTYPE svg PUBLIC "-//W3C//DTD SVG 1.1//EN" "http://www.w3.org/Graphics/SVG/1.1/DTD/svg11.dtd">
<svg version="1.1" id="Layer_1" xmlns="http://www.w3.org/2000/svg" xmlns:xlink="http://www.w3.org/1999/xlink" x="0px" y="0px"
	 width="163.999px" height="331.875px" viewBox="0 0 163.999 331.875" enable-background="new 0 0 163.999 331.875"
	 xml:space="preserve">
<g>
	<path id="bezel_4_"  fill="#FFFFFF" stroke="#7F89A3" stroke-width="2" d="M162.999,314.883
		c0,8.833-7.191,15.992-16.062,15.992H17.062C8.191,330.875,1,323.716,1,314.883V16.992C1,8.159,8.191,1,17.062,1h129.875
		c8.871,0,16.062,7.159,16.062,15.992V314.883L162.999,314.883z"/>
	
		<rect id="screen_4_" x="10.034" y="36.919"  fill="#FFFFFF" stroke="#7F89A3" width="143.929" height="255.084">
	</rect>
	<path id="speaker_3_"  fill="none" stroke="#7F89A3" d="M93.03,26.665c0,0.635-0.439,1.147-0.98,1.147
		H71.948c-0.542,0-0.98-0.513-0.98-1.147v-2.58c0-0.635,0.439-1.147,0.98-1.147h20.101c0.541,0,0.98,0.513,0.98,1.147V26.665
		L93.03,26.665z"/>
	<circle id="camera_4_"  fill="none" stroke="#7F89A3" cx="81.999" cy="12.919" r="3">
	</circle>
	<ellipse id="lock_4_"  fill="none" stroke="#7F89A3" cx="81.999" cy="310.92" rx="10.041" ry="10.001">
	</ellipse>
</g>
</svg>
