<?xml version="1.0" encoding="utf-8"?>
<!-- Generator: Adobe Illustrator 16.0.4, SVG Export Plug-In . SVG Version: 6.00 Build 0)  -->
<!DOCTYPE svg PUBLIC "-//W3C//DTD SVG 1.1//EN" "http://www.w3.org/Graphics/SVG/1.1/DTD/svg11.dtd">
<svg version="1.1" id="Layer_1" xmlns="http://www.w3.org/2000/svg" xmlns:xlink="http://www.w3.org/1999/xlink" x="0px" y="0px"
	 width="307.875px" height="149.998px" viewBox="0 0 307.875 149.998" enable-background="new 0 0 307.875 149.998"
	 xml:space="preserve">
<g>
	<path id="bezel_3_"  fill="#FFFFFF" stroke="#7F89A3" stroke-width="2" d="M290.883,1
		c8.833,0,15.992,7.191,15.992,16.062v115.875c0,8.869-7.159,16.061-15.992,16.061H16.992C8.159,148.998,1,141.807,1,132.938V17.062
		C1,8.191,8.159,1,16.992,1H290.883L290.883,1z"/>
	
		<rect id="screen_3_" x="36.919" y="10.034"  fill="#FFFFFF" stroke="#7F89A3" width="231.084" height="129.93">
	</rect>
	<path id="speaker_2_"  fill="none" stroke="#7F89A3" d="M26.665,63.968c0.635,0,1.147,0.439,1.147,0.98
		V85.05c0,0.542-0.513,0.98-1.147,0.98h-2.58c-0.635,0-1.147-0.439-1.147-0.98V64.948c0-0.541,0.513-0.98,1.147-0.98H26.665
		L26.665,63.968z"/>
	<circle id="camera_3_"  fill="none" stroke="#7F89A3" cx="12.919" cy="74.999" r="3">
	</circle>
	<ellipse id="lock_3_"  fill="none" stroke="#7F89A3" cx="286.92" cy="74.999" rx="10.001" ry="10.04">
	</ellipse>
</g>
</svg>
