<?xml version="1.0" encoding="utf-8"?>
<!-- Generator: Adobe Illustrator 16.0.4, SVG Export Plug-In . SVG Version: 6.00 Build 0)  -->
<!DOCTYPE svg PUBLIC "-//W3C//DTD SVG 1.1//EN" "http://www.w3.org/Graphics/SVG/1.1/DTD/svg11.dtd">
<svg version="1.1" id="Layer_1" xmlns="http://www.w3.org/2000/svg" xmlns:xlink="http://www.w3.org/1999/xlink" x="0px" y="0px"
	 width="550.917px" height="428.055px" viewBox="2.084 2 550.917 428.055" enable-background="new 2.084 2 550.917 428.055"
	 xml:space="preserve">
<g id="IPAD" transform="translate(681.000000, 55.000000)">
	<path id="bezel-2" fill="#FFFFFF" stroke="#7F89A3" stroke-width="2" d="M-136.749,324.034h-533.417c-4.28,0-7.75-3.469-7.75-7.748
		V-44.253c0-4.278,3.469-7.747,7.75-7.747h533.417c4.28,0,7.75,3.469,7.75,7.747v360.539
		C-128.999,320.565-132.468,324.034-136.749,324.034z"/>
</g>
<path fill="#FFFFFF" stroke="#7F89A3" stroke-width="2" d="M336.246,380.968v25.508c0,8.906-7.221,16.127-16.127,16.127h-85.152
	c-8.906,0-16.127-7.221-16.127-16.127v-25.508H336.246z"/>
<path fill="#FFFFFF" stroke="#7F89A3" stroke-width="2" d="M277.542,420.668"/>
<path fill="#FFFFFF" stroke="#7F89A3" stroke-width="2" d="M367.533,419.055c0,5.522-4.477,9.999-9.999,9.999H197.552
	c-5.523,0-10-4.477-10-9.999l0,0c0-5.522,4.477-9.999,10-9.999h159.981C363.056,409.056,367.533,413.533,367.533,419.055
	L367.533,419.055z"/>
</svg>
