<?xml version="1.0" encoding="utf-8"?>
<!-- Generator: Adobe Illustrator 16.0.4, SVG Export Plug-In . SVG Version: 6.00 Build 0)  -->
<!DOCTYPE svg PUBLIC "-//W3C//DTD SVG 1.1//EN" "http://www.w3.org/Graphics/SVG/1.1/DTD/svg11.dtd">
<svg version="1.1" id="Layer_1" xmlns="http://www.w3.org/2000/svg" xmlns:xlink="http://www.w3.org/1999/xlink" x="0px" y="0px"
	 width="14px" height="13.993px" viewBox="0 0 14 13.993" enable-background="new 0 0 14 13.993" xml:space="preserve">
<path fill="#A7A9AC" d="M13.996,3.487c0-0.034-0.002-0.067-0.006-0.096c-0.006-0.021-0.01-0.039-0.017-0.054
	c-0.007-0.02-0.009-0.041-0.019-0.056c-0.006-0.021-0.018-0.04-0.029-0.056c-0.007-0.015-0.014-0.032-0.025-0.047
	c-0.016-0.028-0.041-0.055-0.062-0.077c-0.004-0.005-0.006-0.01-0.008-0.011l0,0l0,0l-2.91-2.922
	c-0.226-0.226-0.594-0.226-0.824-0.003c-0.228,0.229-0.228,0.6-0.002,0.826l1.919,1.926L3.499,2.914l0,0
	c-0.153,0-0.302,0.062-0.412,0.172C2.978,3.194,2.917,3.342,2.917,3.5l0.006,8.491l-1.928-1.928c-0.226-0.232-0.595-0.232-0.824,0
	c-0.228,0.224-0.229,0.592-0.001,0.82l2.931,2.939c0.109,0.109,0.259,0.17,0.416,0.17c0.162,0,0.301-0.061,0.411-0.17l2.899-2.926
	c0.228-0.232,0.225-0.602-0.001-0.828c-0.231-0.225-0.601-0.225-0.828,0.008l-1.911,1.928L4.084,4.08l7.924,0.008l-1.921,1.914
	c-0.231,0.224-0.232,0.594-0.004,0.821c0.113,0.115,0.263,0.174,0.413,0.174c0.149,0,0.297-0.058,0.41-0.174l2.924-2.908l0,0
	c0.027-0.027,0.051-0.058,0.07-0.086c0.012-0.014,0.018-0.031,0.025-0.047c0.012-0.021,0.021-0.035,0.028-0.056
	c0.011-0.02,0.013-0.036,0.02-0.06c0.007-0.015,0.011-0.03,0.017-0.05C13.994,3.582,14,3.542,14,3.501l0,0
	C14,3.499,13.996,3.489,13.996,3.487z"/>
</svg>
