<?xml version="1.0" encoding="utf-8"?>
<!-- Generator: Adobe Illustrator 16.0.4, SVG Export Plug-In . SVG Version: 6.00 Build 0)  -->
<!DOCTYPE svg PUBLIC "-//W3C//DTD SVG 1.1//EN" "http://www.w3.org/Graphics/SVG/1.1/DTD/svg11.dtd">
<svg version="1.1" id="Layer_1" xmlns="http://www.w3.org/2000/svg" xmlns:xlink="http://www.w3.org/1999/xlink" x="0px" y="0px"
	 width="273.875px" height="132px" viewBox="0 0 273.875 132" enable-background="new 0 0 273.875 132" xml:space="preserve">
<g>
	<path id="bezel_1_" fill="#FFFFFF" stroke="#7F89A3" stroke-width="2" d="M256.883,1c8.833,0,15.992,7.191,15.992,16.062v97.876
		c0,8.869-7.159,16.062-15.992,16.062H16.992C8.159,131,1,123.808,1,114.938V17.062C1,8.191,8.159,1,16.992,1H256.883L256.883,1z"/>
	<path id="speaker_1_" fill="none" stroke="#7F89A3" d="M26.665,54c0.635,0,1.147,0.439,1.147,0.98v20.104
		c0,0.541-0.513,0.979-1.147,0.979h-2.58c-0.635,0-1.147-0.438-1.147-0.979V54.98c0-0.541,0.513-0.98,1.147-0.98H26.665L26.665,54z"
		/>
	<circle id="camera_2_" fill="none" stroke="#7F89A3" cx="12.919" cy="65" r="3"/>
	<ellipse id="lock_2_" fill="none" stroke="#7F89A3" cx="252.92" cy="65.96" rx="10.001" ry="10.04"/>
</g>
</svg>
