<?xml version="1.0" encoding="utf-8"?>
<!-- Generator: Adobe Illustrator 16.0.4, SVG Export Plug-In . SVG Version: 6.00 Build 0)  -->
<!DOCTYPE svg PUBLIC "-//W3C//DTD SVG 1.1//EN" "http://www.w3.org/Graphics/SVG/1.1/DTD/svg11.dtd">
<svg version="1.1" id="Layer_1" xmlns="http://www.w3.org/2000/svg" xmlns:xlink="http://www.w3.org/1999/xlink" x="0px" y="0px"
	 width="300.917px" height="419.917px" viewBox="0 0 300.917 419.917" enable-background="new 0 0 300.917 419.917"
	 xml:space="preserve">
<g id="IPAD" transform="translate(681.000000, 55.000000)">
	<path id="bezel" fill="#FFFFFF" stroke="#7F89A3" stroke-width="2" d="M-393.096,363.917h-274.89
		c-6.635,0-12.014-5.377-12.014-12.01V-41.99c0-6.633,5.378-12.01,12.014-12.01h274.89c6.635,0,12.014,5.377,12.014,12.01v393.898
		C-381.083,358.541-386.461,363.917-393.096,363.917z"/>
	<path id="bezel-2" fill="#FFFFFF" stroke="#7F89A3" stroke-width="2" d="M-393.096,363.917h-274.89
		c-6.635,0-12.014-5.377-12.014-12.01V-41.99c0-6.633,5.378-12.01,12.014-12.01h274.89c6.635,0,12.014,5.377,12.014,12.01v393.898
		C-381.083,358.541-386.461,363.917-393.096,363.917z"/>
	<circle id="lock" fill="none" stroke="#7F89A3" cx="-530.541" cy="346.938" r="8.021"/>
	<circle id="camera" fill="none" stroke="#7F89A3" cx="-530.542" cy="-37.093" r="2.99"/>
</g>
</svg>
