<?xml version="1.0" encoding="utf-8"?>
<!-- Generator: Adobe Illustrator 16.0.4, SVG Export Plug-In . SVG Version: 6.00 Build 0)  -->
<!DOCTYPE svg PUBLIC "-//W3C//DTD SVG 1.1//EN" "http://www.w3.org/Graphics/SVG/1.1/DTD/svg11.dtd">
<svg version="1.1" id="Layer_1" xmlns="http://www.w3.org/2000/svg" xmlns:xlink="http://www.w3.org/1999/xlink" x="0px" y="0px"
	 width="164px" height="331.875px" viewBox="0 0 164 331.875" enable-background="new 0 0 164 331.875" xml:space="preserve">
<g>
	<path id="bezel_4_" fill="#FFFFFF" stroke="#7F89A3" stroke-width="2" d="M163,314.883c0,8.833-7.191,15.992-16.062,15.992H17.062
		C8.191,330.875,1,323.716,1,314.883V16.992C1,8.159,8.191,1,17.062,1h129.875C155.808,1,163,8.159,163,16.992V314.883L163,314.883z
		"/>
	<path id="speaker_3_" fill="none" stroke="#7F89A3" d="M93.03,26.665c0,0.635-0.438,1.147-0.979,1.147H71.948
		c-0.542,0-0.98-0.513-0.98-1.147v-2.58c0-0.635,0.439-1.147,0.98-1.147h20.1c0.541,0,0.98,0.513,0.98,1.147L93.03,26.665
		L93.03,26.665z"/>
	<circle id="camera_4_" fill="none" stroke="#7F89A3" cx="81.999" cy="12.919" r="3"/>
	<ellipse id="lock_4_" fill="none" stroke="#7F89A3" cx="81.999" cy="310.92" rx="10.042" ry="10.001"/>
</g>
</svg>
