<?xml version="1.0" encoding="utf-8"?>
<!-- Generator: Adobe Illustrator 16.0.4, SVG Export Plug-In . SVG Version: 6.00 Build 0)  -->
<!DOCTYPE svg PUBLIC "-//W3C//DTD SVG 1.1//EN" "http://www.w3.org/Graphics/SVG/1.1/DTD/svg11.dtd">
<svg version="1.1" id="Layer_1" xmlns="http://www.w3.org/2000/svg" xmlns:xlink="http://www.w3.org/1999/xlink" x="0px" y="0px"
	 width="14px" height="13.973px" viewBox="0 0 14 13.973" enable-background="new 0 0 14 13.973" xml:space="preserve">
<g>
	<path fill="#A7A9AC" d="M8.361,7.749c-0.043,0-0.077,0.005-0.113,0.012c-0.02,0.002-0.039,0.014-0.051,0.014
		C8.177,7.783,8.154,7.788,8.14,7.794C8.116,7.802,8.1,7.815,8.084,7.825C8.068,7.831,8.051,7.841,8.036,7.848
		c-0.061,0.044-0.115,0.099-0.16,0.16C7.869,8.022,7.858,8.039,7.854,8.056c-0.012,0.02-0.027,0.033-0.03,0.055
		C7.814,8.13,7.812,8.148,7.802,8.171C7.799,8.185,7.792,8.2,7.787,8.219C7.783,8.256,7.775,8.294,7.776,8.335v3.296
		c0,0.327,0.262,0.587,0.585,0.587c0.322,0,0.585-0.26,0.585-0.587V9.743l4.059,4.058c0.226,0.229,0.595,0.229,0.822,0
		c0.23-0.229,0.23-0.599,0-0.824l-4.06-4.06h1.893c0.158,0.001,0.308-0.062,0.414-0.172c0.103-0.106,0.167-0.249,0.167-0.41
		c0-0.326-0.26-0.586-0.581-0.586H8.361z"/>
	<path fill="#A7A9AC" d="M6.42,0H0.584C0.262,0,0,0.261,0,0.583v5.835c0,0.319,0.262,0.581,0.584,0.581H6.42
		C6.738,6.999,7,6.737,7,6.418V0.583C7,0.261,6.738,0,6.42,0z M1.17,1.168h4.662v4.665H1.17V1.168z"/>
</g>
</svg>
